HIERARCHY
ROOT Hips
{
	OFFSET 0.000000 71.427986 0.000000
	CHANNELS 6 Xposition Yposition Zposition Xrotation Yrotation Zrotation
	JOINT Pelvis
	{
		OFFSET 0.000000 0.000000 0.000000
		CHANNELS 3 Xrotation Yrotation Zrotation
		JOINT LeftUpLeg
		{
			OFFSET 6.797100 -2.508499 -1.318700
			CHANNELS 3 Xrotation Yrotation Zrotation
			JOINT LeftLeg
			{
				OFFSET 0.069008 -29.241863 0.690200
				CHANNELS 3 Xrotation Yrotation Zrotation
				JOINT LeftFoot
				{
					OFFSET -0.069008 -29.568123 -0.266800
					CHANNELS 3 Xrotation Yrotation Zrotation
					JOINT LeftToeBase
					{
						OFFSET 3.145500 -8.631000 16.059900
						CHANNELS 3 Xrotation Yrotation Zrotation
						End Site
						{
							OFFSET 0.000000 18.501587 0.000000
						}
					}
				}
			}
			JOINT Left_ShortSleeve
			{
				OFFSET 0.265923 -10.480953 1.153800
				CHANNELS 3 Xrotation Yrotation Zrotation
				End Site
				{
					OFFSET 1.725763 19.823879 0.000000
				}
			}
		}
		JOINT RightUpLeg
		{
			OFFSET -6.797100 -2.508499 -1.318700
			CHANNELS 3 Xrotation Yrotation Zrotation
			JOINT RightLeg
			{
				OFFSET -0.082453 -29.241932 0.688000
				CHANNELS 3 Xrotation Yrotation Zrotation
				JOINT RightFoot
				{
					OFFSET 0.082453 -29.568058 -0.264600
					CHANNELS 3 Xrotation Yrotation Zrotation
					JOINT RightToeBase
					{
						OFFSET -3.115300 -8.682800 16.113400
						CHANNELS 3 Xrotation Yrotation Zrotation
						End Site
						{
							OFFSET 0.000000 18.567114 0.000000
						}
					}
				}
			}
			JOINT Right_ShortSleeve
			{
				OFFSET -0.265923 -10.480953 1.153800
				CHANNELS 3 Xrotation Yrotation Zrotation
				End Site
				{
					OFFSET -1.725766 19.823910 0.000000
				}
			}
		}
	}
	JOINT Spine
	{
		OFFSET 0.000000 13.368103 0.470500
		CHANNELS 3 Xrotation Yrotation Zrotation
		JOINT Spine1
		{
			OFFSET 0.147000 13.837402 0.538800
			CHANNELS 3 Xrotation Yrotation Zrotation
			JOINT Spine2
			{
				OFFSET 0.168000 16.242897 -1.435500
				CHANNELS 3 Xrotation Yrotation Zrotation
				JOINT Neck
				{
					OFFSET 0.217200 18.631500 -1.679100
					CHANNELS 3 Xrotation Yrotation Zrotation
					JOINT Head
					{
						OFFSET 0.000000 6.599396 1.385900
						CHANNELS 3 Xrotation Yrotation Zrotation
						JOINT Hat
						{
							OFFSET -0.532200 27.220596 -10.096100
							CHANNELS 3 Xrotation Yrotation Zrotation
							End Site
							{
								OFFSET 0.000000 22.029861 0.000000
							}
						}
						JOINT HairD
						{
							OFFSET -10.777400 17.437393 -1.325900
							CHANNELS 3 Xrotation Yrotation Zrotation
							JOINT HairD1
							{
								OFFSET -3.290299 -11.051193 1.062200
								CHANNELS 3 Xrotation Yrotation Zrotation
								End Site
								{
									OFFSET 0.000000 11.579437 0.000000
								}
							}
						}
						JOINT HairB
						{
							OFFSET -10.777400 17.437393 1.467900
							CHANNELS 3 Xrotation Yrotation Zrotation
							JOINT HairB1
							{
								OFFSET -1.561200 -12.956299 3.590200
								CHANNELS 3 Xrotation Yrotation Zrotation
								End Site
								{
									OFFSET 0.000000 13.534866 0.000000
								}
							}
						}
						JOINT HairA
						{
							OFFSET 9.713100 17.437393 1.467900
							CHANNELS 3 Xrotation Yrotation Zrotation
							JOINT HairA1
							{
								OFFSET 1.561200 -12.956299 3.590200
								CHANNELS 3 Xrotation Yrotation Zrotation
								End Site
								{
									OFFSET 0.000000 13.534866 0.000000
								}
							}
						}
						JOINT HairC
						{
							OFFSET 9.713100 17.437393 -1.325900
							CHANNELS 3 Xrotation Yrotation Zrotation
							JOINT HairC1
							{
								OFFSET 3.290300 -11.051193 1.062200
								CHANNELS 3 Xrotation Yrotation Zrotation
								End Site
								{
									OFFSET 0.000000 11.579437 0.000000
								}
							}
						}
					}
				}
				JOINT LeftShoulder
				{
					OFFSET 5.101800 15.108002 -2.763700
					CHANNELS 3 Xrotation Yrotation Zrotation
					JOINT LeftArm
					{
						OFFSET 9.825497 2.506317 -1.597400
						CHANNELS 3 Xrotation Yrotation Zrotation
						JOINT LeftForeArm
						{
							OFFSET 21.966244 0.000000 0.000000
							CHANNELS 3 Xrotation Yrotation Zrotation
							JOINT LeftHand
							{
								OFFSET 33.879036 0.000000 0.000000
								CHANNELS 3 Xrotation Yrotation Zrotation
								JOINT LeftHandThumb1
								{
									OFFSET 6.715286 -2.359680 3.363841
									CHANNELS 3 Xrotation Yrotation Zrotation
									JOINT LeftHandThumb2
									{
										OFFSET 2.507072 -1.447464 1.447461
										CHANNELS 3 Xrotation Yrotation Zrotation
										JOINT LeftHandThumb3
										{
											OFFSET 2.898338 -1.673355 1.673357
											CHANNELS 3 Xrotation Yrotation Zrotation
											End Site
											{
												OFFSET -0.295959 3.727692 -0.131651
											}
										}
									}
								}
								JOINT LeftHandIndex1
								{
									OFFSET 14.190811 -0.254547 3.840278
									CHANNELS 3 Xrotation Yrotation Zrotation
									JOINT LeftHandIndex2
									{
										OFFSET 3.551727 0.000000 -0.000000
										CHANNELS 3 Xrotation Yrotation Zrotation
										JOINT LeftHandIndex3
										{
											OFFSET 2.894196 0.000000 0.000000
											CHANNELS 3 Xrotation Yrotation Zrotation
											End Site
											{
												OFFSET -1.000603 2.690872 0.366626
											}
										}
									}
								}
								JOINT LeftHandMiddle1
								{
									OFFSET 13.776489 0.000000 0.000000
									CHANNELS 3 Xrotation Yrotation Zrotation
									JOINT LeftHandMiddle2
									{
										OFFSET 3.438232 0.000000 0.000000
										CHANNELS 3 Xrotation Yrotation Zrotation
										JOINT LeftHandMiddle3
										{
											OFFSET 3.691551 0.000000 0.000000
											CHANNELS 3 Xrotation Yrotation Zrotation
											End Site
											{
												OFFSET -1.082298 3.499527 0.457670
											}
										}
									}
								}
								JOINT LeftHandRing1
								{
									OFFSET 13.966164 -0.268127 -3.067488
									CHANNELS 3 Xrotation Yrotation Zrotation
									JOINT LeftHandRing2
									{
										OFFSET 3.162567 0.000000 0.000000
										CHANNELS 3 Xrotation Yrotation Zrotation
										JOINT LeftHandRing3
										{
											OFFSET 3.324348 0.000000 0.000000
											CHANNELS 3 Xrotation Yrotation Zrotation
											End Site
											{
												OFFSET -0.861900 3.184998 0.405154
											}
										}
									}
								}
								JOINT LeftHandPinky1
								{
									OFFSET 13.131393 -0.168503 -5.746925
									CHANNELS 3 Xrotation Yrotation Zrotation
									JOINT LeftHandPinky2
									{
										OFFSET 2.849182 0.000000 0.000000
										CHANNELS 3 Xrotation Yrotation Zrotation
										JOINT LeftHandPinky3
										{
											OFFSET 2.805038 0.000000 0.000000
											CHANNELS 3 Xrotation Yrotation Zrotation
											End Site
											{
												OFFSET -0.882500 2.642609 0.325652
											}
										}
									}
								}
							}
							JOINT Left_Sleeve
							{
								OFFSET 6.592125 -0.646545 0.805568
								CHANNELS 3 Xrotation Yrotation Zrotation
								End Site
								{
									OFFSET -0.000179 20.275787 -0.000000
								}
							}
						}
					}
				}
				JOINT RightShoulder
				{
					OFFSET -5.731700 15.108002 -2.763700
					CHANNELS 3 Xrotation Yrotation Zrotation
					JOINT RightArm
					{
						OFFSET -9.825497 2.506317 -1.597400
						CHANNELS 3 Xrotation Yrotation Zrotation
						JOINT RightForeArm
						{
							OFFSET -21.966242 0.000000 0.000000
							CHANNELS 3 Xrotation Yrotation Zrotation
							JOINT RightHand
							{
								OFFSET -33.879032 0.000000 0.000000
								CHANNELS 3 Xrotation Yrotation Zrotation
								JOINT RightHandThumb1
								{
									OFFSET -6.715286 -2.359680 3.363841
									CHANNELS 3 Xrotation Yrotation Zrotation
									JOINT RightHandThumb2
									{
										OFFSET -2.507072 -1.447464 1.447461
										CHANNELS 3 Xrotation Yrotation Zrotation
										JOINT RightHandThumb3
										{
											OFFSET -2.898338 -1.673355 1.673357
											CHANNELS 3 Xrotation Yrotation Zrotation
											End Site
											{
												OFFSET 0.295959 3.727692 -0.131651
											}
										}
									}
								}
								JOINT RightHandIndex1
								{
									OFFSET -14.190811 -0.254547 3.840278
									CHANNELS 3 Xrotation Yrotation Zrotation
									JOINT RightHandIndex2
									{
										OFFSET -3.551727 0.000000 -0.000000
										CHANNELS 3 Xrotation Yrotation Zrotation
										JOINT RightHandIndex3
										{
											OFFSET -2.894196 0.000000 0.000000
											CHANNELS 3 Xrotation Yrotation Zrotation
											End Site
											{
												OFFSET 1.000603 2.690872 0.366626
											}
										}
									}
								}
								JOINT RightHandMiddle1
								{
									OFFSET -13.776489 0.000000 0.000000
									CHANNELS 3 Xrotation Yrotation Zrotation
									JOINT RightHandMiddle2
									{
										OFFSET -3.438232 0.000000 0.000000
										CHANNELS 3 Xrotation Yrotation Zrotation
										JOINT RightHandMiddle3
										{
											OFFSET -3.691551 0.000000 0.000000
											CHANNELS 3 Xrotation Yrotation Zrotation
											End Site
											{
												OFFSET 1.082298 3.499527 0.457670
											}
										}
									}
								}
								JOINT RightHandRing1
								{
									OFFSET -13.966164 -0.268127 -3.067488
									CHANNELS 3 Xrotation Yrotation Zrotation
									JOINT RightHandRing2
									{
										OFFSET -3.162567 0.000000 0.000000
										CHANNELS 3 Xrotation Yrotation Zrotation
										JOINT RightHandRing3
										{
											OFFSET -3.324348 0.000000 0.000000
											CHANNELS 3 Xrotation Yrotation Zrotation
											End Site
											{
												OFFSET 0.861900 3.184998 0.405154
											}
										}
									}
								}
								JOINT RightHandPinky1
								{
									OFFSET -13.131393 -0.168503 -5.746925
									CHANNELS 3 Xrotation Yrotation Zrotation
									JOINT RightHandPinky2
									{
										OFFSET -2.849182 0.000000 0.000000
										CHANNELS 3 Xrotation Yrotation Zrotation
										JOINT RightHandPinky3
										{
											OFFSET -2.805038 0.000000 0.000000
											CHANNELS 3 Xrotation Yrotation Zrotation
											End Site
											{
												OFFSET 0.882500 2.642609 0.325652
											}
										}
									}
								}
							}
							JOINT Right_Sleeve
							{
								OFFSET -6.592125 -0.646545 0.805568
								CHANNELS 3 Xrotation Yrotation Zrotation
								End Site
								{
									OFFSET 0.000179 20.275787 -0.000000
								}
							}
						}
					}
				}
				JOINT Bind_Right_JacketString
				{
					OFFSET -3.534800 11.969597 7.200700
					CHANNELS 3 Xrotation Yrotation Zrotation
					JOINT Bind_Right_JacketString1
					{
						OFFSET -0.319900 -6.102600 2.794100
						CHANNELS 3 Xrotation Yrotation Zrotation
						End Site
						{
							OFFSET 0.000000 6.719452 0.000000
						}
					}
				}
				JOINT Bind_Left_JacketString
				{
					OFFSET 2.904800 11.969597 7.200700
					CHANNELS 3 Xrotation Yrotation Zrotation
					JOINT Bind_Left_JacketString1
					{
						OFFSET 0.364800 -5.904503 3.186800
						CHANNELS 3 Xrotation Yrotation Zrotation
						End Site
						{
							OFFSET 0.000000 6.719513 0.000000
						}
					}
				}
				JOINT HairE
				{
					OFFSET 5.915200 17.612701 -11.592200
					CHANNELS 3 Xrotation Yrotation Zrotation
					JOINT HairE1
					{
						OFFSET 0.289200 -7.171898 -1.284500
						CHANNELS 3 Xrotation Yrotation Zrotation
						End Site
						{
							OFFSET 0.000000 7.291756 0.000000
						}
					}
				}
				JOINT HairF
				{
					OFFSET -0.864800 17.612701 -11.592200
					CHANNELS 3 Xrotation Yrotation Zrotation
					JOINT HairF1
					{
						OFFSET 0.000000 -14.087097 -2.127501
						CHANNELS 3 Xrotation Yrotation Zrotation
						End Site
						{
							OFFSET 0.000000 14.246841 0.000000
						}
					}
				}
				JOINT HairG
				{
					OFFSET -8.087700 17.612701 -11.592200
					CHANNELS 3 Xrotation Yrotation Zrotation
					JOINT HairG1
					{
						OFFSET -0.293600 -6.081398 -0.910100
						CHANNELS 3 Xrotation Yrotation Zrotation
						End Site
						{
							OFFSET 0.000000 6.156120 0.000000
						}
					}
				}
			}
		}
	}
	JOINT Pouch
	{
		OFFSET 0.000000 4.394501 10.847300
		CHANNELS 3 Xrotation Yrotation Zrotation
		End Site
		{
			OFFSET 0.000000 21.880577 0.000000
		}
	}
	JOINT Bag
	{
		OFFSET -13.229000 4.813004 -0.593300
		CHANNELS 3 Xrotation Yrotation Zrotation
		End Site
		{
			OFFSET 0.000000 21.880577 0.000000
		}
	}
	JOINT OccupyGuyFacialAnim_Joint
	{
		OFFSET 1.000000 -70.206398 -1.655000
		CHANNELS 3 Xrotation Yrotation Zrotation
		End Site
		{
			OFFSET 0.000000 21.880577 0.000000
		}
	}
}
MOTION
Frames: 4
Frame Time: 0.016667
-0.190991 66.559998 1.295368 5.324478 -6.787677 -0.932006 -0.000001 0.000000 0.000000 -42.463187 6.944294 19.795133 69.589266 10.580017 -1.851575 -1.330094 8.000801 -12.990810 -0.000002 -0.000001 -0.000000 0.000001 -0.000000 0.000000 -29.076720 -5.806938 4.768034 44.031412 -1.240157 -0.913771 -22.900490 -5.738924 -4.115488 0.000000 -0.000001 -0.000000 0.000001 -0.000000 -0.000000 9.176633 3.325267 4.852821 6.474939 1.246103 1.050140 6.471418 1.202600 1.091237 2.140438 -0.614932 -1.384966 -3.656095 -2.727635 0.126232 0.000001 0.000000 -0.000000 0.000001 0.000000 -0.000000 0.000001 0.000000 -0.000000 0.000001 0.000000 -0.000000 0.000001 0.000000 0.000000 0.000001 0.000000 -0.000000 0.000001 0.000000 0.000000 0.000001 0.000000 -0.000000 0.000001 0.000000 -0.000000 1.724429 -9.915033 -14.934996 -25.063145 2.043300 -69.542165 -0.000003 -31.031295 -0.000014 13.812953 3.247842 3.605253 -6.000699 -6.126821 4.616754 7.611100 24.884947 2.404796 0.000001 0.000002 0.000001 0.627458 4.865875 -25.301818 0.596887 2.578220 -26.066030 0.000003 -0.000001 0.000003 0.227908 3.736615 -13.565790 0.647524 2.679126 -27.169716 0.000001 0.000001 -0.000001 0.497555 4.571284 -22.150800 0.640349 2.665146 -27.016028 0.000000 0.000001 0.000002 0.820476 5.237553 -29.403165 0.162687 1.372386 -13.519854 -0.000000 0.000001 0.000003 -0.000000 0.000001 -0.000000 4.830914 17.858062 5.566071 -15.198235 0.576456 66.754977 -0.000006 21.881884 0.000003 11.551349 9.546652 1.170293 -7.540278 -3.885165 -4.751892 7.955457 -28.077788 -3.121220 -0.000002 0.000000 0.000001 0.082439 -1.088641 14.291456 0.320873 -1.700372 21.371553 -0.000001 0.000000 0.000002 0.522814 -4.330227 26.060477 0.321163 -1.701135 21.381537 0.000002 -0.000002 -0.000003 2.075033 -6.645757 34.808922 0.321874 -1.702918 21.404846 -0.000002 0.000002 0.000002 1.502783 -7.627460 42.127770 0.321170 -1.701133 21.381427 -0.000001 -0.000001 0.000000 0.000000 -0.000000 0.000000 -0.000001 0.000000 -0.000001 -0.000001 -0.000000 -0.000001 -0.000001 0.000000 -0.000001 -0.000001 0.000000 -0.000001 -0.000001 0.000000 -0.000001 -0.000001 -0.000000 -0.000001 -0.000001 0.000000 -0.000001 -0.000001 0.000000 -0.000001 -0.000001 0.000000 -0.000001 -0.000001 -0.000000 -0.000001 -0.000001 0.000000 0.000000 -0.000001 0.000000 0.000000 -0.000001 0.000000 0.000000 
-0.206885 66.600243 1.322007 5.344943 -6.797818 -0.698404 -0.000000 0.000000 0.000000 -42.973645 8.225922 20.169808 69.027995 11.069035 -1.853387 -1.220246 6.545658 -12.587548 -0.000002 -0.000001 0.000000 0.000002 -0.000000 0.000000 -29.093905 -5.760291 4.524083 43.937664 -1.558361 -0.914393 -22.781558 -5.354826 -3.971033 0.000000 0.000002 0.000000 0.000002 0.000000 0.000000 9.169178 3.334742 4.847210 6.470724 1.252375 1.050137 6.467359 1.205347 1.091238 2.140431 -0.627688 -1.373676 -3.654030 -2.810159 -0.098616 -0.000000 0.000000 -0.000000 -0.000000 0.000000 -0.000000 -0.000000 0.000000 -0.000000 -0.000000 0.000000 -0.000001 -0.000000 -0.000000 -0.000001 -0.000000 0.000000 -0.000001 -0.000000 -0.000000 -0.000001 -0.000000 0.000000 -0.000000 -0.000000 0.000000 -0.000000 1.719458 -9.903875 -14.934630 -24.909461 1.975393 -69.518478 0.000001 -31.046236 0.000002 13.575644 3.329223 3.235259 -6.000699 -6.126823 4.616755 7.611105 24.884949 2.404796 0.000001 0.000001 0.000001 0.631448 4.874275 -25.392803 0.600987 2.586558 -26.156896 0.000003 0.000001 0.000002 0.229968 3.745040 -13.650460 0.651211 2.686313 -27.248772 0.000001 0.000000 0.000001 0.500611 4.578761 -22.229925 0.643782 2.671868 -27.089831 -0.000000 -0.000000 0.000000 0.824198 5.244114 -29.477116 0.164334 1.379241 -13.588683 0.000001 0.000000 -0.000001 -0.000001 -0.000001 0.000001 4.818719 17.839442 5.583533 -15.265591 -0.058696 66.673820 -0.000001 21.871309 -0.000003 12.264131 9.590637 0.896133 -7.540280 -3.885162 -4.751893 7.955463 -28.077789 -3.121220 -0.000002 -0.000001 0.000000 0.081295 -1.093043 14.345805 0.324227 -1.708925 21.484200 -0.000004 0.000001 0.000000 0.524620 -4.333905 26.110843 0.324045 -1.708451 21.477911 0.000003 0.000000 0.000001 2.078614 -6.647899 34.855842 0.324529 -1.709705 21.494452 0.000003 -0.000000 0.000001 1.506866 -7.629882 42.171429 0.323644 -1.707450 21.464860 0.000002 0.000001 0.000004 0.000001 0.000000 -0.000000 -0.000000 0.000000 -0.000000 -0.000002 -0.000000 -0.000001 -0.000000 0.000000 0.000000 -0.000000 0.000000 0.000000 -0.000000 0.000000 -0.000000 -0.000002 -0.000000 -0.000001 -0.000000 0.000000 0.000000 -0.000000 0.000000 0.000000 -0.000000 0.000000 -0.000000 -0.000002 -0.000000 -0.000001 -0.000000 0.000000 0.000000 -0.000000 0.000000 0.000000 -0.000000 0.000000 0.000000 
-0.226952 66.648712 1.404747 5.371427 -6.781094 -0.385154 -0.000000 0.000000 0.000000 -43.180097 8.728342 19.440535 68.266006 11.370721 -1.853724 -1.445191 5.069442 -12.100346 -0.000001 0.000002 -0.000001 0.000001 0.000000 -0.000000 -29.036142 -5.668861 4.203864 43.900146 -1.910606 -0.913640 -22.845163 -4.951850 -3.804364 0.000000 0.000001 0.000000 0.000001 0.000001 -0.000000 9.146998 3.358284 4.834087 6.458227 1.270575 1.050137 6.454848 1.219982 1.086654 2.140437 -0.658716 -1.366247 -3.626632 -2.970674 -0.373949 0.000001 -0.000000 0.000000 0.000001 -0.000000 0.000000 0.000001 -0.000000 0.000000 0.000001 -0.000000 -0.000000 0.000001 0.000000 -0.000000 0.000001 -0.000000 -0.000000 0.000001 0.000000 -0.000000 0.000001 -0.000000 0.000000 0.000001 -0.000000 0.000000 1.707820 -9.871295 -14.933497 -24.720374 1.875862 -69.543402 -0.000025 -31.071818 -0.000056 13.451195 3.530301 2.736916 -6.000700 -6.126823 4.616755 7.611103 24.884944 2.404793 -0.000000 0.000001 -0.000001 0.643186 4.898764 -25.658651 0.613018 2.610888 -26.422286 0.000003 0.000002 0.000002 0.236006 3.769626 -13.897925 0.662085 2.707298 -27.479837 0.000001 -0.000000 0.000001 0.509618 4.600611 -22.461195 0.653872 2.691481 -27.305542 -0.000001 0.000000 0.000000 0.835139 5.263286 -29.693353 0.169203 1.399270 -13.789944 -0.000001 -0.000002 0.000001 0.000000 0.000003 0.000001 4.783125 17.784938 5.634554 -15.255327 -0.757014 66.514472 0.000003 21.916144 -0.000003 12.968074 9.611765 0.635134 -7.540280 -3.885165 -4.751890 7.955463 -28.077789 -3.121218 0.000000 -0.000001 -0.000000 0.084255 -1.104388 14.506161 0.334190 -1.734009 21.816019 -0.000004 -0.000000 0.000000 0.529954 -4.344729 26.259335 0.332574 -1.729964 21.762214 0.000003 -0.000000 -0.000001 2.089176 -6.654210 34.994228 0.332467 -1.729707 21.758893 0.000002 -0.000000 0.000001 1.515888 -7.639733 42.300004 0.331033 -1.726103 21.711162 -0.000000 -0.000001 0.000000 -0.000000 0.000001 -0.000000 0.000003 -0.000000 -0.000000 0.000001 -0.000000 -0.000000 0.000003 -0.000000 -0.000000 0.000003 -0.000000 -0.000000 0.000003 -0.000000 -0.000000 0.000001 -0.000000 -0.000000 0.000003 -0.000000 -0.000000 0.000003 -0.000000 -0.000000 0.000003 -0.000000 -0.000000 0.000001 -0.000000 -0.000000 -0.000000 0.000000 0.000000 -0.000000 0.000000 0.000000 -0.000000 0.000000 0.000000 
-0.250207 66.707016 1.540481 5.402417 -6.740626 -0.004825 -0.000000 0.000000 -0.000000 -43.250008 9.504425 18.267167 67.077382 11.160970 -1.851066 -2.010807 3.627148 -11.443317 -0.000000 0.000000 0.000000 0.000001 0.000000 0.000001 -28.935106 -5.540466 3.818946 43.865435 -2.290281 -0.912452 -22.967484 -4.539326 -3.616786 0.000000 0.000000 -0.000000 0.000000 0.000001 -0.000000 9.110654 3.393493 4.808002 6.437243 1.301645 1.047210 6.434236 1.243750 1.079202 2.140441 -0.705678 -1.362460 -3.574629 -3.199441 -0.688518 0.000003 0.000000 0.000000 0.000003 0.000000 0.000000 0.000003 0.000000 0.000000 0.000003 0.000000 0.000001 0.000001 0.000000 -0.000000 0.000003 0.000000 0.000001 0.000001 0.000000 -0.000000 0.000003 0.000000 0.000000 0.000003 0.000000 0.000000 1.689948 -9.818010 -14.926637 -24.496733 1.749453 -69.601506 0.000008 -31.094812 0.000011 13.416807 3.707235 2.149834 -6.000700 -6.126820 4.616756 7.611105 24.884949 2.404792 0.000001 0.000002 0.000002 0.662409 4.938243 -26.088509 0.632708 2.650119 -26.851398 0.000001 0.000002 0.000000 0.245999 3.809347 -14.298176 0.679861 2.741154 -27.853669 -0.000001 0.000001 0.000001 0.524387 4.635892 -22.835377 0.670368 2.723156 -27.654707 -0.000004 0.000001 -0.000001 0.852988 5.294263 -30.043373 0.177269 1.431645 -14.115819 0.000002 -0.000001 -0.000001 -0.000001 -0.000000 0.000000 4.725666 17.696568 5.717010 -15.174706 -1.505986 66.289937 -0.000007 21.983652 0.000002 13.660427 9.640867 0.382055 -7.540276 -3.885166 -4.751894 7.955458 -28.077793 -3.121219 -0.000002 -0.000002 0.000000 0.089126 -1.122876 14.767904 0.350771 -1.774847 22.357644 0.000003 0.000001 -0.000001 0.538743 -4.362389 26.501890 0.346749 -1.765033 22.227082 -0.000001 -0.000003 -0.000001 2.106482 -6.664452 35.220519 0.345651 -1.762364 22.191536 0.000003 0.000000 -0.000005 1.527470 -7.652296 42.510346 0.343296 -1.756553 22.114483 0.000001 -0.000001 0.000000 -0.000001 0.000001 -0.000000 0.000001 -0.000000 -0.000001 0.000001 -0.000000 -0.000000 0.000001 -0.000000 -0.000000 0.000001 -0.000000 -0.000000 0.000001 -0.000000 -0.000001 0.000001 -0.000000 -0.000000 0.000001 -0.000000 -0.000000 0.000001 -0.000000 -0.000000 0.000001 -0.000000 -0.000001 0.000001 -0.000000 -0.000000 -0.000000 0.000000 -0.000000 -0.000000 0.000000 -0.000000 -0.000000 0.000000 -0.000000 
